<svg width="79" height="79" viewBox="0 0 79 79" fill="none" xmlns="http://www.w3.org/2000/svg">
<path d="M39.6356 7.13074C40.8556 7.13074 42.0583 7.19683 43.2436 7.32902C43.6679 7.37597 44.0788 7.50604 44.4529 7.71179C44.8269 7.91755 45.1567 8.19496 45.4236 8.52818C45.6904 8.86141 45.889 9.24393 46.0079 9.6539C46.1269 10.0639 46.164 10.4933 46.1171 10.9176C46.0701 11.3419 45.94 11.7528 45.7343 12.1268C45.5285 12.5008 45.2511 12.8307 44.9179 13.0975C44.5847 13.3643 44.2022 13.5629 43.7922 13.6819C43.3822 13.8009 42.9528 13.838 42.5285 13.791C37.1718 13.1918 31.7613 14.2719 27.0453 16.882C22.3294 19.4921 18.541 23.5031 16.2043 28.3604C13.8675 33.2176 13.0979 38.6809 14.0018 43.9947C14.9057 49.3084 17.4386 54.21 21.2499 58.0213C25.0613 61.8327 29.9628 64.3655 35.2766 65.2695C40.5903 66.1734 46.0537 65.4038 50.9109 63.067C55.7681 60.7303 59.7792 56.9419 62.3893 52.2259C64.9994 47.5099 66.0795 42.0994 65.4803 36.7428C65.4333 36.3185 65.4704 35.8891 65.5894 35.4791C65.7084 35.0691 65.907 34.6866 66.1738 34.3534C66.7127 33.6804 67.4968 33.249 68.3537 33.1542C69.2106 33.0594 70.0701 33.3088 70.7431 33.8477C71.0763 34.1145 71.3537 34.4444 71.5595 34.8184C71.7652 35.1924 71.8953 35.6033 71.9423 36.0276C72.0723 37.213 72.1384 38.4157 72.1405 39.6357C72.1405 57.5882 57.5881 72.1407 39.6356 72.1407C21.6831 72.1407 7.13062 57.5882 7.13062 39.6357C7.13062 21.6832 21.6831 7.13074 39.6356 7.13074ZM39.5316 26.2339C39.7458 27.0684 39.62 27.9538 39.1817 28.6955C38.7435 29.4373 38.0287 29.9747 37.1945 30.1898C34.9024 30.7902 32.9072 32.204 31.581 34.1674C30.2548 36.1308 29.6883 38.5097 29.9871 40.8601C30.286 43.2106 31.4299 45.372 33.2052 46.941C34.9806 48.51 37.2662 49.3795 39.6356 49.3872C41.7981 49.3881 43.8997 48.6701 45.6096 47.3462C47.3195 46.0222 48.5409 44.1675 49.0815 42.0736C49.3119 41.2556 49.8535 40.5604 50.5902 40.1368C51.327 39.7133 52.2003 39.5951 53.0231 39.8076C53.8459 40.0201 54.5528 40.5464 54.9923 41.2737C55.4318 42.001 55.569 42.8716 55.3745 43.6988C54.3773 47.5212 52.0227 50.8498 48.7505 53.0628C45.4783 55.2757 41.5123 56.2218 37.5935 55.724C33.6747 55.2263 30.0711 53.3189 27.456 50.3582C24.8409 47.3975 23.3931 43.586 23.3831 39.6357C23.3825 36.0322 24.5796 32.5306 26.7861 29.6816C28.9926 26.8326 32.0833 24.7977 35.5725 23.8968C35.9859 23.7902 36.4162 23.7662 36.8389 23.826C37.2617 23.8857 37.6685 24.0282 38.0361 24.2453C38.4038 24.4623 38.7251 24.7496 38.9817 25.0908C39.2382 25.432 39.4251 25.8205 39.5316 26.2339ZM60.7768 7.54355C61.3701 7.78954 61.8772 8.2058 62.2342 8.73976C62.5911 9.27373 62.7819 9.90147 62.7824 10.5438V16.4922H68.7275C69.3703 16.4923 69.9986 16.683 70.533 17.0402C71.0674 17.3974 71.484 17.905 71.7299 18.4988C71.9759 19.0927 72.0403 19.7462 71.9149 20.3766C71.7895 21.0071 71.4801 21.5862 71.0256 22.0408L59.5286 33.5248C58.9192 34.1344 58.0925 34.477 57.2305 34.4772H49.3871L43.4452 40.4223C42.8352 41.0322 42.008 41.3749 41.1454 41.3749C40.2829 41.3749 39.4556 41.0322 38.8457 40.4223C38.2358 39.8124 37.8931 38.9852 37.8931 38.1226C37.8931 37.26 38.2358 36.4328 38.8457 35.8229L44.7909 29.8842V22.0375C44.791 21.1755 45.1336 20.3489 45.7433 19.7394L57.2338 8.24566C57.6883 7.79081 58.2676 7.48101 58.8983 7.35545C59.5289 7.22989 60.1827 7.29422 60.7768 7.5403M56.2814 18.3872L51.2919 23.3832V27.9794H55.8881L60.8808 22.9899H59.5319C58.6698 22.9899 57.843 22.6474 57.2334 22.0379C56.6238 21.4283 56.2814 20.6015 56.2814 19.7394V18.3872Z" fill="#925AFF"/>
</svg>
