<svg width="81" height="81" viewBox="0 0 81 81" fill="none" xmlns="http://www.w3.org/2000/svg">
<path fill-rule="evenodd" clip-rule="evenodd" d="M73.5804 28.3333C73.9978 30.1651 74.2085 32.0379 74.2085 33.9166H49.0835V8.79163C54.7767 8.7916 60.3011 10.7251 64.7517 14.2755C69.2023 17.8258 72.3152 22.7824 73.5804 28.3333ZM67.81 28.3333C66.8828 25.2235 65.1957 22.3936 62.9011 20.099C60.6065 17.8044 57.7766 16.1174 54.6668 15.1901V28.3333H67.81Z" fill="#EB60A7"/>
<path fill-rule="evenodd" clip-rule="evenodd" d="M12.7917 45.0834C12.7917 41.3094 13.6419 37.584 15.279 34.1837C16.9162 30.7834 19.2983 27.7956 22.2485 25.4422C25.1987 23.0887 28.6412 21.4301 32.3203 20.5895C35.9993 19.7489 39.8205 19.7478 43.5001 20.5865V39.5H62.4136C63.1994 42.9481 63.2485 46.5232 62.5576 49.9915C61.8667 53.4598 60.4514 56.7432 58.4042 59.6269C56.3571 62.5106 53.7243 64.9297 50.6779 66.7259C47.6315 68.5221 44.2403 69.655 40.726 70.0504C37.2117 70.4458 33.6536 70.0949 30.2842 69.0205C26.9149 67.9462 23.8103 66.1727 21.1735 63.816C18.5367 61.4593 16.4272 58.5726 14.9828 55.3445C13.5384 52.1164 12.7918 48.6198 12.7917 45.0834ZM56.9113 45.0834H37.9167V26.0889C34.16 26.0889 30.4876 27.2029 27.364 29.29C24.2403 31.3771 21.8058 34.3437 20.3681 37.8145C18.9305 41.2853 18.5543 45.1044 19.2872 48.789C20.0201 52.4736 21.8292 55.8581 24.4856 58.5145C27.142 61.1709 30.5265 62.98 34.2111 63.7129C37.8957 64.4458 41.7148 64.0696 45.1856 62.632C48.6564 61.1943 51.623 58.7598 53.7101 55.6361C55.7972 52.5125 56.9113 48.8401 56.9113 45.0834Z" fill="#EB60A7"/>
</svg>
